<?xml version="1.0" encoding="UTF-8"?>
<svg id="Layer_1" xmlns="http://www.w3.org/2000/svg" viewBox="0 0 636.02 644.65">
  <defs>
    <style>
      .cls-1 {
        fill: #ee5591;
      }

      .cls-2 {
        fill: #231f20;
      }

      .cls-3 {
        fill: #21abd8;
      }

      .cls-4 {
        fill: #fff;
      }
    </style>
  </defs>
  <path class="cls-2" d="M592.97,414.33c22.27-3.2,34,13.2,34,13.2,16.53,18.8,5.33,45.33,5.33,45.33-12.4,35.73-45.33,34.4-45.33,34.4,1.87,39.47-29.87,46-29.87,46-35.87,9.87-51.73-11.47-51.73-11.47-22.8,3.2-30.53-3.73-30.53-3.73-18.8-9.2-16.33-33.8-16.33-33.8.2-32.8,32.4-40,32.4-40,9.5-4,10-15.8,10-15.8-22.6,19-57,23-57,23-44.6,4.2-58.8-16.6-58.8-16.6-13,14-36,19.6-36,19.6,0,0,23,7.6,14.8,34.6,0,0-10.8,29-29.4,42.2,0,0,28.2,14.2,21.6,48.4,0,0-3.4,24.4-38.8,37.4,0,0-20,8.8-38.2-3.6,0,0-42,33.53-72.93-15.53,0,0-30.4-8.8-29.6-40,0,0,0-38.4,52.27-37.33l16.53-12c-34.93-5.33-54.67-27.2-54.67-27.2-24.53-28-14.4-65.6-14.4-65.6,6.67-45.87,26.93-70.67,26.93-70.67-8.27-27.2-6.4-54.67-6.4-54.67-32.13,2.27-45.2-23.07-45.2-23.07-8.8-23.73,2.53-37.73,2.53-37.73,14.27-22.4,13.6-24.8,13.6-24.8-71.47,28.53-109.07,4.27-109.07,4.27-34.13-15.47-50.13-62.4-50.13-62.4-16.8-34.4-3.73-78.4-3.73-78.4C14.71,42.2,63.51,26.66,63.51,26.66c42.6-20.6,84.4,1.6,84.4,1.6C157.51,1.06,188.71.06,188.71.06c50.4-1.8,60.2,36,60.2,36,0,0,47.8-6,57.8,53.2,0,0,7.2,30-11.6,50.4,0,0,6.4,30.6,52.8,18.4,0,0,41.2-17.6,85.6-7.8,0,0,36.4,6.8,71.2,38.4,0,0,23.6,18.8,30.8,45.8,0,0,8.6,27.2,5.6,49.6,0,0-3.4,20.8-8.2,27.4,0,0,34-17.2,49.2,24.2,0,0,12.6,37.6,10.6,72.4l.27,6.27Z"/>
  <path class="cls-1" d="M304.91,555.66s32.4,7.6,31.6,27.8c0,0,1,26.2-24.6,35.4,0,0-19.4,5-32.4-5.8,0,0-16.4-18.4,3.2-38.4,0,0,.3-1.7-1.7-.2,0,0-19.1,9.3-16.7,29,0,0,1.6,8.3,5.1,17.9,0,0-21.37,13.77-37.77,1.1,0,0-14.93-11.6-8.67-30.27,0,0,4.27-11.6,23.2-20.4,0,0-27.07-2.93-37.73,29.07,0,0-13.73,1.33-14.93-16.53,0,0,.27-20,18.53-26.27,0,0,13.73-6.27,29.47-3.33,0,0,23.87-18.8,55.87-36.67h-14.13s-44.93,2-64.27-14.4c0,0-12.67-8.67-17.07-24.67,0,0-14-36.13,9.2-82.93,0,0,19.6,63.6,72.8,79.6,0,0,23.2,6,35.87,5.07,0,0,13.73-1.2,25.33,16.53,0,0,6.13,10.27-1.73,19.73,0,0-20.07,23.47-34.67,34.87l-3.8,3.8Z"/>
  <path class="cls-1" d="M536.11,379.26s-11.4,77.6-30.2,100.4c0,0-32.2-6.2-32.2,24.2,0,0-1.6,22.8,29.6,21,0,0-5.4-19.6,17.4-41.2,0,0,1.87-1.47,1.8,1.67,0,0-19.8,31.53-4,44.53,0,0,20.4,16,41.6-2.8,0,0,9-9.31,7.04-22.05,0,0-11.64-9.48-6.84-33.08,0,0,1.73-1.33,1.33.93,0,0,5.73,22.13,24.93,17.6,0,0,22.4-6.13,27.47-28.27,0,0,3.07-19.87-10.13-27.47,0,0-16.53-9.07-25.73,10.67,0,0-2.53,4.4-2.67.27,0,0,1.2-57.6-8.4-87.2,0,0-9.4-33.6-35.4-28.6,0,0-10.8,8.8-20.2,7.2,0,0-7.4.2-5-8.6,0,0,17.4-27.8,13-58,0,0-4.4-45.2-34.2-68,0,0-23.8-26-60.8-29.8,0,0-37.8-4.2-70.4,1.8,0,0-53.4,8.2-74.2-22.4,0,0-45.6,30.2-83.8-10.2,0,0-21.2-24.4-7.4-56.8,0,0-13.4-44.2-70.6-46.8,0,0-63.8.2-84,39.6,0,0-37,50.2,3,103.8,0,0,21.6,41.8,77.2,36.6,0,0,43.4-2.6,81.4-13.6,0,0,41-13.2,49,11.6,0,0,8.4,15-10,39.6,0,0-25,29-49.8,19.6,0,0-13.8-2.4-14.6-15.8,0,0-1.8-10.2,12.2-20.2,0,0,9.2-7.6,8.4-20.6l-10.6,2.8s-2,13.8-13.4,23.8c0,0-15.2,14.6-1.2,35,0,0,16.6,17.8,46,9.6,0,0,7-1.2,25.2-20,0,0-10.8,28.2-24.6,35,0,0-6.13,79.27,38.13,127.8,0,0,32.53,66.13,125.33,11.2,0,0-21.87-30.4-1.07-80.53,0,0-9.6,65.07,36.8,87.2,0,0,50.67,20.8,94.93-24.53,0,0,17.2-17.07,29.67-46.93Z"/>
  <path class="cls-3" d="M234.11,240.46s3-6.8-10.2-8.4c0,0-39.2-.6-44.2,27,0,0-2,14.8,22,8.4,0,0,19.4-5,32.4-27Z"/>
  <path class="cls-4" d="M193.31,106.26s-.4-38.2,41-55c0,0,28.8-10.4,45.6,10.6,0,0,19.4,18.6,11.8,48,0,0-3.8,31-46.8,38,0,0-36.2,3.6-46-18.6,0,0-6.4-9.2-5.6-23Z"/>
  <ellipse class="cls-2" cx="237.11" cy="97.86" rx="21.2" ry="22.2"/>
  <path class="cls-4" d="M236.51,39.06s-16-33.4-55.4-22c0,0-11.8,2.4-19.4,17.8,0,0,22,14.6,35,36.6,0,0,10-17.4,39.8-32.4Z"/>
  <ellipse class="cls-2" cx="185.51" cy="45.66" rx="16.4" ry="17.2"/>
  <ellipse class="cls-4" cx="72.24" cy="76.93" rx="3.53" ry="3.27"/>
  <ellipse class="cls-4" cx="92.97" cy="67.13" rx="10.27" ry="6.4" transform="translate(-10.47 17.63) rotate(-10.26)"/>
  <ellipse class="cls-4" cx="456.07" cy="233.05" rx="2.8" ry="3.27" transform="translate(-55.94 220.52) rotate(-25.67)"/>
  <ellipse class="cls-4" cx="448.72" cy="212.31" rx="6.4" ry="10.99" transform="translate(4.58 434.03) rotate(-51.85)"/>
  <circle class="cls-4" cx="527.87" cy="523.36" r="1.63"/>
  <ellipse class="cls-4" cx="522.77" cy="512.74" rx="4.26" ry="3.23" transform="translate(-93.85 907.66) rotate(-77.08)"/>
  <ellipse class="cls-4" cx="489.27" cy="497.17" rx="5.63" ry="3.96" transform="translate(-120.52 835.86) rotate(-74.51)"/>
  <circle class="cls-4" cx="269.97" cy="404.13" r="3.27"/>
  <path class="cls-4" d="M322.71,439.93s-28.53-5.47-41.33-22.67c0,0-3.47-4.27-6.8-2,0,0-1.73,2.13,2,7.47,0,0,13.87,29.07,42,24.4,0,0,9.6-1.07,10.4-4.53,0,0,1.07-1.87-6.27-2.67Z"/>
  <ellipse class="cls-4" cx="235.51" cy="600.49" rx="5.2" ry="3.19" transform="translate(-401.93 699.05) rotate(-77.37)"/>
  <ellipse class="cls-4" cx="205.16" cy="588.56" rx="1.65" ry="2.1"/>
  <ellipse class="cls-4" cx="210.94" cy="575.28" rx="6.18" ry="4.35" transform="translate(-398.61 512.84) rotate(-64.01)"/>
</svg>